<?xml version="1.0" encoding="UTF-8" standalone="no"?>
<!-- Created with Inkscape (http://www.inkscape.org/) -->

<svg
   xmlns:dc="http://purl.org/dc/elements/1.1/"
   xmlns:cc="http://creativecommons.org/ns#"
   xmlns:rdf="http://www.w3.org/1999/02/22-rdf-syntax-ns#"
   xmlns:svg="http://www.w3.org/2000/svg"
   xmlns="http://www.w3.org/2000/svg"
   xmlns:sodipodi="http://sodipodi.sourceforge.net/DTD/sodipodi-0.dtd"
   xmlns:inkscape="http://www.inkscape.org/namespaces/inkscape"
   width="730"
   height="730"
   id="root"
   version="1.1"
   inkscape:version="0.92.1 r15371"
   sodipodi:docname="linux-symbolic.svg"
   inkscape:export-filename="./tux-large.png"
   inkscape:export-xdpi="300"
   inkscape:export-ydpi="300"
   viewBox="0 0 730 730">
  <title
     id="title20046">Tux</title>
  <sodipodi:namedview
     id="base"
     pagecolor="#ffffff"
     bordercolor="#666666"
     borderopacity="0.41176471"
     inkscape:pageopacity="0.0"
     inkscape:pageshadow="2"
     inkscape:zoom="0.95479452"
     inkscape:cx="315"
     inkscape:cy="365"
     inkscape:document-units="px"
     inkscape:current-layer="layer2"
     showgrid="false"
     inkscape:window-width="1342"
     inkscape:window-height="893"
     inkscape:window-x="241"
     inkscape:window-y="81"
     inkscape:window-maximized="0"
     fit-margin-top="0"
     fit-margin-left="0"
     fit-margin-right="0"
     fit-margin-bottom="0"
     showguides="true"
     inkscape:guide-bbox="true"
     inkscape:showpageshadow="false"
     showborder="true"
     inkscape:snap-intersection-paths="false"
     inkscape:object-paths="true"
     inkscape:object-nodes="false"
     inkscape:snap-smooth-nodes="false"
     inkscape:snap-nodes="true"
     inkscape:pagecheckerboard="true"
     scale-x="1" />
  <defs
     id="defs27452" />
  <metadata
     id="metadata27455">
    <rdf:RDF>
      <cc:Work
         rdf:about="">
        <dc:format>image/svg+xml</dc:format>
        <dc:type
           rdf:resource="http://purl.org/dc/dcmitype/StillImage" />
        <dc:title>Tux</dc:title>
        <dc:date>20 June 2012</dc:date>
        <dc:creator>
          <cc:Agent>
            <dc:title>Garrett LeSage</dc:title>
          </cc:Agent>
        </dc:creator>
        <cc:license
           rdf:resource="http://creativecommons.org/publicdomain/zero/1.0/" />
        <dc:contributor>
          <cc:Agent>
            <dc:title>Larry Ewing, the creator of the original Tux graphic</dc:title>
          </cc:Agent>
        </dc:contributor>
        <dc:subject>
          <rdf:Bag>
            <rdf:li>tux</rdf:li>
            <rdf:li>Linux</rdf:li>
            <rdf:li>penguin</rdf:li>
            <rdf:li>logo</rdf:li>
          </rdf:Bag>
        </dc:subject>
        <dc:rights>
          <cc:Agent>
            <dc:title>Larry Ewing, Garrett LeSage</dc:title>
          </cc:Agent>
        </dc:rights>
        <dc:source>https://github.com/garrett/Tux</dc:source>
      </cc:Work>
      <cc:License
         rdf:about="http://creativecommons.org/publicdomain/zero/1.0/">
        <cc:permits
           rdf:resource="http://creativecommons.org/ns#Reproduction" />
        <cc:permits
           rdf:resource="http://creativecommons.org/ns#Distribution" />
        <cc:permits
           rdf:resource="http://creativecommons.org/ns#DerivativeWorks" />
      </cc:License>
    </rdf:RDF>
  </metadata>
  <g
     transform="translate(160,342.63782)"
     id="layer1"
     inkscape:groupmode="layer"
     inkscape:label="Body"
     style="display:inline">
    <path
       style="fill-opacity:1;fill-rule:evenodd;stroke-width:0.32847095"
       d="M 375.13867 10.09375 C 371.47541 10.125719 368.36829 10.300238 366.03711 10.503906 C 355.61371 11.412705 311.76591 21.9336 291.30078 63.199219 C 284.9433 75.765838 280.75684 91.215946 280.39258 110.16797 C 278.84752 190.55943 283.89168 178.12691 280.7793 215.01562 C 279.63387 228.59162 273.60471 248.94879 263.70508 268.81836 C 252.38676 291.53539 237.42696 309.323 228.63867 322.38086 C 210.65606 349.09987 193.293 372.23737 180.18945 398.7832 C 172.74318 413.86825 167.39295 435.07581 165.06836 450.32422 C 163.51433 460.51691 163.33356 473.69567 163.68164 486.04688 C 154.46645 494.05271 149.73277 507.53672 140.26367 517.81641 C 134.15598 524.43139 122.34989 526.58084 109.26562 529.11523 C 98.040057 531.26369 86.162 535.63297 82.009766 542.32031 C 81.546195 543.06637 81.128747 543.8399 80.744141 544.63477 C 71.289834 562.83778 82.860323 594.08019 77.216797 617.19141 C 74.826974 627.01709 70.74665 636.26269 70.673828 644.73633 C 70.649188 649.10617 71.639376 653.74099 74.681641 659.00391 C 78.012993 664.79807 85.329171 668.92622 95.734375 672.52344 C 105.43938 675.87926 118.03958 678.82517 132.69336 682.27734 L 137.76367 683.45898 C 144.35408 685.02851 150.92169 686.59773 157.56055 687.92578 C 161.88194 688.81899 164.39318 689.25414 166.54102 689.64062 C 175.88352 691.30638 179.43138 691.95657 204.3457 701.68555 C 210.35728 704.02752 217.02093 706.53904 224.07031 708.6875 C 238.00001 713.0089 253.73987 716.14691 268.27344 713.51562 C 275.63697 712.18814 282.58939 709.38655 288.76953 704.55859 C 295.16703 699.56146 301.32364 692.82604 305.69336 685.99414 C 306.8615 684.17215 307.94093 682.28647 308.88672 680.3457 C 309.71552 678.70784 310.45214 677.02932 311.06641 675.31641 C 311.65198 673.75515 312.14046 672.1358 312.49609 670.50977 C 318.35795 667.58678 332.86185 663.17595 367.39844 662.8418 C 419.44797 662.33464 454.11523 681.11719 454.11523 681.11719 L 454.14062 680.73242 C 454.575 683.19503 455.10701 685.48667 455.7832 687.68359 C 456.77324 690.89429 458.10043 693.84078 459.88672 696.68945 C 461.69762 699.5141 463.94236 702.1944 466.79102 704.82617 C 469.88102 707.6748 473.59849 710.30562 477.84766 712.55078 C 481.80688 714.62701 486.2505 716.36484 491.12695 717.64453 C 495.56899 718.80357 500.37292 719.577 505.4668 719.81836 C 510.22306 720.05972 515.19404 719.84223 520.38477 719.09375 C 529.14824 717.8385 535.90859 715.06202 541.72656 711.46484 C 547.40001 707.96432 552.03582 703.76373 556.76758 699.4668 L 556.91211 699.3457 C 560.0266 696.52091 563.18893 693.64936 566.68945 691.01758 C 569.03092 689.25517 571.18017 687.61232 573.23242 686.01953 C 576.27409 683.67756 577.96363 682.3501 579.67773 680.99805 C 584.82001 676.9665 590.13195 672.766 595.44336 668.80664 C 600.94764 664.72661 606.78903 660.5751 613.13867 656.51953 C 617.94279 653.42951 623.35043 649.9291 628.54102 646.52539 C 633.90075 643.00044 639.50018 639.30674 644.78711 635.68555 C 654.23033 629.27163 667.26395 621.3221 672.20117 610.99609 C 673.85013 607.80171 674.73567 604.37782 674.49609 600.69727 C 673.72365 588.89216 659.74493 578.24426 647.38477 567.66992 C 641.37316 562.5038 635.31469 557.38543 632.15234 552.14648 C 629.59348 547.92192 626.50155 541.54915 625.63281 536.91406 C 623.19299 524.06053 623.2461 514.45748 617.16016 505.9668 C 611.57503 498.17472 606.69225 495.93347 598.08398 494.96094 C 596.79365 494.81519 595.58221 494.6345 594.40625 494.44336 C 599.9986 473.8548 601.6013 460.78401 600.57812 443.53711 C 598.24095 404.13781 573.48975 362.44065 541.14453 314.94531 C 530.23613 298.92755 517.47288 282.36147 508.40625 268.16016 C 497.90278 251.70827 486.96231 232.68084 482.74609 215.39258 C 479.57151 202.37548 478.22224 177.80616 477.78906 136.88672 C 479.33412 74.190614 459.92513 45.24558 436.43555 27.1875 C 417.34989 12.515383 391.01283 9.9552177 375.13867 10.09375 z M 402.73828 110.44922 C 406.69512 110.49603 410.68879 111.41635 414.53125 113.36914 C 432.09676 122.29669 435.34146 145.47441 431.13086 158.53711 C 428.5431 166.56559 422.40148 175.95617 417.76367 181.84375 C 414.16843 180.37184 409.72831 178.75567 404.20312 176.84961 C 407.38813 175.01586 410.23648 172.12163 412.33594 168.28516 C 418.15073 157.69279 416.07639 143.91399 407.75195 137.49609 C 399.40356 131.07767 387.94127 134.4799 382.15039 145.07227 C 378.09713 152.45564 377.87896 161.40768 380.94336 168.30859 C 375.99685 166.40257 371.67986 164.7624 367.5293 163.50781 L 367.5293 163.50586 C 366.92625 158.14899 366.75694 148.35432 370.47266 136.02539 C 374.95901 121.24664 388.6067 110.28206 402.73828 110.44922 z M 310.33789 116.73438 C 322.49489 116.75614 330.0325 129.1627 333.41211 145.79492 C 334.61888 151.85147 334.71398 157.90937 333.99023 163.45898 C 333.53168 163.60351 333.07482 163.79735 332.5918 163.99023 C 330.66131 164.73839 328.58672 165.67903 326.29492 166.86133 C 326.65679 165.58233 326.9214 164.20724 327.08984 162.75977 C 328.39279 151.7333 323.18083 140.31879 315.43555 137.30273 C 307.6903 134.28668 300.35564 140.80166 299.05273 151.82812 C 297.79817 162.42049 302.55121 173.35059 309.76562 176.87305 C 308.84849 177.50062 307.9073 178.15276 306.9668 178.82812 C 305.76002 179.64855 304.55339 180.54238 303.37109 181.45898 C 297.65247 175.93327 293.81625 167.02965 291.64453 157.66797 C 287.71132 140.68165 291.95838 121.93313 303.10547 118.04883 L 303.10742 118.04883 C 305.67859 117.15156 308.08659 116.73038 310.33789 116.73438 z M 352.40625 164.36719 C 362.02611 164.53246 369.85236 167.97706 381.11133 172.34961 C 386.85864 174.54319 393.53953 176.93055 400.02539 179.30078 L 400.04883 179.32617 C 412.72321 183.62326 420.03791 186.44738 424.28711 189.12695 C 428.10161 191.54128 429.33401 193.88328 430.00977 197.4082 C 430.8546 201.97093 429.45514 211.62682 426.58203 215.32031 C 423.80576 218.86865 421.12462 218.31374 411.75781 225.36328 C 406.13274 229.58827 396.40438 238.13445 389.37891 242.76953 C 374.44725 252.61722 361.20984 257.52721 343.50391 255.3418 C 334.33583 254.21025 328.05895 250.98925 321.45312 244.96289 C 317.86059 241.6855 313.9925 236.33653 309.77148 231.55469 C 306.10036 227.39598 301.89058 223.8408 298.25 220.21484 C 297.94112 219.90734 298.04364 219.38842 297.76758 219.09375 C 301.09463 221.17087 303.45907 222.35724 305.91797 223.77734 C 313.63077 228.23196 317.92417 230.35915 325.16797 232.80859 C 332.66043 235.34209 339.98056 236.29759 348.59961 235.78906 C 358.03395 235.2322 371.99329 230.81863 380.28711 226.99609 C 388.31468 223.29616 400.66409 215.22579 411.75781 206.98633 C 414.00665 205.31602 420.24646 202.7955 420.4375 201.38281 C 420.68142 199.57868 415.36877 199.12547 413.7207 199.90625 C 411.85166 200.7919 408.86244 203.72774 407.29297 204.88672 C 397.15174 212.71185 386.74683 219.13409 378.28516 223.20703 C 369.87775 227.25366 358.23405 230.54992 347.80273 231.13086 C 334.68771 231.86134 319.99811 227.93221 307.13867 220.32812 C 299.18449 215.6244 291.25995 211.56499 291.25195 211.55469 C 288.14612 207.55512 291.47672 200.59998 293.58008 197.22852 C 297.12894 191.5306 303.26091 185.97749 309.24805 181.80078 C 316.05654 177.03196 324.35222 171.48832 332.92383 167.88281 L 332.92383 167.85938 C 337.47949 166.0908 342.77682 164.93484 348.1582 164.50391 C 349.6209 164.38678 351.03198 164.34358 352.40625 164.36719 z M 427.53711 220.03906 C 431.42196 239.41392 436.03954 272.38421 448.78125 300.9082 C 457.18278 319.71658 457.73611 318.70849 461.93555 339.25391 C 467.3093 343.52827 476.31126 358.67333 478.19336 362.24414 C 497.86273 403.46228 504.79923 433.0678 503.46484 468.35547 C 506.10495 468.30838 509.19191 468.17178 511.80859 468.17578 C 517.39264 457.87663 522.27232 445.13106 523.16797 433.88672 C 525.4628 405.0761 516.25574 375.3846 488.71484 349.31445 C 487.8954 348.53872 487.76702 348.26728 487.99023 348.30078 C 488.21343 348.33429 488.78802 348.67231 489.37891 349.11914 C 513.16091 367.10585 529.84915 392.96496 531.14062 426.53516 C 531.63262 439.32536 526.99034 456.42362 522.5 468.34375 C 539.30301 468.8659 555.78996 470.80283 567.82617 476.5625 C 570.81808 477.99422 573.62595 479.76288 575.91797 481.76758 C 565.63015 475.31589 545.25699 473.72953 528.24805 474.29688 C 517.27109 474.66295 508.13318 476.08324 502.9375 477.58984 C 502.53081 483.02493 501.9528 488.61714 501.20898 494.42969 C 497.18491 493.59491 492.97651 493.88363 488.9668 494.07227 C 481.34003 494.43093 473.36953 499.40816 470.4082 506.71289 C 469.68287 508.50204 468.87272 510.53722 468.44922 512.68555 C 466.65052 521.81395 466.58181 533.58453 466.25977 545.33789 C 465.92237 557.64498 465.17665 569.04612 465.02148 575.85938 C 440.74903 605.46788 412.31555 622.62775 366.97266 624.62305 C 315.48602 626.88884 287.25093 608.7596 278.40625 599.91016 C 290.50291 593.6028 300.20303 583.34381 295.875 567.83203 C 292.62352 556.17906 276.10089 546.71771 252.52344 528.79883 C 239.71171 519.06176 233.42132 512.99062 228.38281 507.42773 C 225.49304 504.87185 222.94319 502.13091 220.68359 499.21875 C 220.53661 499.05497 220.3896 498.89245 220.24414 498.72656 C 220.24234 498.69816 220.24028 498.67098 220.23828 498.64258 C 211.63123 487.26812 207.40068 473.27757 205.13281 457.0625 C 201.96054 434.3819 209.29471 383.621 240.14062 356.09961 C 240.7425 355.56265 241.37166 355.23966 241.73242 355.2168 C 242.19626 355.18742 242.21747 355.65296 241.17188 356.78906 C 216.47293 383.62307 208.19933 420.89881 212 452.15039 C 213.07852 461.04996 215.8229 469.23066 219.63867 476.83594 C 220.11645 448.53906 225.90234 429.06093 233.53711 403.79883 C 240.93805 382.28096 252.17777 357.28282 262.43164 347.97852 C 269.81501 322.86594 269.27704 331.02932 280.26367 307.00391 C 291.25027 282.97852 299.41249 228.63032 299.49219 226.08398 C 302.42431 228.17916 305.30071 231.22845 307.37891 233.52344 C 312.06984 238.70379 314.88695 242.94895 318.60547 246.82422 C 327.47087 256.06319 336.7196 260.87978 356.16406 259.85156 C 361.58826 259.70917 368.78543 257.77695 376.1582 254.56641 C 381.28116 252.33622 386.49015 249.48929 391.24805 246.19531 C 398.53475 241.15263 408.04079 232.82774 413.17969 228.82227 C 420.24957 223.34492 424.8829 221.41427 427.53711 220.03906 z M 182.41797 487.27539 C 190.53192 487.40706 199.97377 493.1336 211.37305 510.12695 C 229.82921 537.58197 252.91674 568.84813 274.6543 601.82812 C 286.52369 619.58454 299.02083 626.84657 305.26953 643.83203 C 307.15095 648.92251 307.87447 657.31852 307.41602 665.18359 C 306.61951 678.95947 293.52078 693.09501 285.53516 699.34375 C 263.87039 716.25589 230.4314 704.89281 206.74023 695.62891 C 168.50076 680.69531 179.3824 686.70291 145.2207 678.57227 C 111.08295 670.41768 85.847402 665.56783 80.033203 655.45898 C 74.219169 645.37427 75.593152 641.32126 79.646484 629.86133 C 84.591877 615.94106 84.786159 602.86601 84.761719 591.11719 C 84.689521 574.51851 79.791792 560.11464 87.367188 547.11133 C 94.267279 535.28956 122.71005 535.40936 135.0625 529.47461 C 160.58768 517.21831 151.80581 492.34579 179.01953 487.54492 C 180.12632 487.35192 181.25883 487.25658 182.41797 487.27539 z M 490.07227 499.10352 C 490.54921 499.09552 491.03273 499.0996 491.52148 499.11328 C 498.03821 499.29576 505.54498 501.2911 512.42188 502.07227 C 544.38706 506.33773 538.53209 502.91338 554.10352 504.44336 C 568.54475 505.86269 575.30199 496.20414 599.89648 501.21289 C 604.45264 502.14066 607.36933 504.47155 611.29492 508.70117 C 624.16235 521.22127 610.85747 544.9045 641.67383 570.38281 C 653.49123 580.13751 664.3147 590.86273 667.39648 597.80273 C 670.50224 604.74286 667.58981 609.30403 663.29492 614.59375 C 659.00003 619.85905 629.15341 639.36716 610.61523 651.28125 C 592.07689 663.17131 577.63813 675.66815 563.61328 686.19922 C 549.5632 696.7298 541.36216 710.19769 519.69336 713.32812 C 498.02474 716.45845 480.48245 709.61552 470.50977 700.44336 C 460.56111 691.27121 459.39606 681.90494 458.03711 665.91406 C 456.65362 649.89907 468.0343 615.97689 469.19922 600.95703 C 469.90251 591.88207 470.0475 569.07276 471.11523 548.61719 C 471.81852 535.24734 469.22229 509.86485 481.20898 501.39648 C 483.70134 499.77857 486.73364 499.1595 490.07227 499.10352 z "
       id="path3216"
       transform="translate(-160,-342.63782)" />
    <path
       style="fill-rule:evenodd;stroke-width:0.32847095;opacity:0.2"
       d="m 267.53622,-122.59795 c -2.65421,1.37521 -7.28725,3.3054 -14.35713,8.78275 -5.1389,4.00547 -14.64515,12.32971 -21.93185,17.372391 -4.7579,3.293973 -9.96553,6.141973 -15.08849,8.37216 -7.37277,3.210541 -14.57019,5.142012 -19.99439,5.284404 -19.44446,1.028213 -28.69384,-3.787598 -37.55924,-13.026566 -3.71852,-3.875268 -6.53547,-8.120799 -11.2264,-13.301149 -2.0782,-2.29499 -4.95374,-5.34417 -7.88586,-7.43935 -0.0797,2.54634 -8.24307,56.893302 -19.22967,80.918686 -10.98663,24.025416 -10.44773,15.86225 -17.8311,40.9748261 C 92.178215,14.644503 80.937216,39.642506 73.536273,61.160375 65.901501,86.422474 60.116911,105.90145 59.63913,134.19833 55.823355,126.59305 53.078777,118.41125 52.000256,109.51168 48.199584,78.260096 56.472992,40.984543 81.171938,14.150535 c 1.045622,-1.136099 1.023907,-1.600514 0.560069,-1.571142 -0.360759,0.02286 -0.98916,0.344523 -1.591031,0.881485 -30.845918,27.521395 -38.18009,78.283161 -35.007816,100.963762 2.267868,16.21507 6.498124,30.20598 15.105173,41.58044 0.002,0.0284 0.0033,0.0556 0.0051,0.084 0.14546,0.16589 0.293754,0.32765 0.440742,0.49143 2.259594,2.91216 4.808125,5.65268 7.697894,8.20856 2.3e-4,2e-4 3.28e-4,3.3e-4 6.57e-4,6.6e-4 5.038508,5.56289 11.32896,11.63471 24.14069,21.37178 23.577454,17.91888 40.100914,27.37989 43.352394,39.03286 4.32803,15.51178 -5.37325,25.76986 -17.46991,32.07722 8.84468,8.84944 37.07927,26.97939 88.56591,24.7136 45.34289,-1.9953 73.7774,-19.15597 98.04985,-48.76447 0.15517,-6.81324 0.90078,-18.2144 1.23818,-30.52149 0.32204,-11.75336 0.39025,-23.52364 2.18895,-32.65204 0.4235,-2.14833 1.23395,-4.183 1.95928,-5.97215 2.96133,-7.30473 10.9312,-12.28105 18.55797,-12.63971 4.00971,-0.18864 8.21853,-0.47872 12.2426,0.35606 0.74382,-5.81255 1.32227,-11.40354 1.72896,-16.83863 5.19568,-1.5066 14.33327,-2.92825 25.31023,-3.29433 17.00894,-0.56734 37.38281,1.01974 47.67063,7.47143 -2.29202,-2.0047 -5.10118,-3.77314 -8.09309,-5.20486 -12.03621,-5.75967 -28.52149,-7.69732 -45.3245,-8.21947 4.49034,-11.92013 9.13168,-29.017988 8.63968,-41.80819 -1.29148,-33.570197 -17.97871,-59.428508 -41.76071,-77.4152158 -0.59089,-0.4468355 -1.16639,-0.7857485 -1.38959,-0.8192525 -0.22321,-0.033504 -0.0945,0.2385487 0.72494,1.0142821 27.5409,26.0701482 36.74707,55.7616752 34.45224,84.5722892 -0.89565,11.244337 -5.77514,23.990137 -11.35919,34.289287 -2.61668,-0.004 -5.70318,0.1319 -8.34329,0.17899 C 344.79934,90.430053 337.86197,60.824382 318.1926,19.606247 316.3105,16.03544 307.30833,0.89084957 301.93458,-3.3835133 297.73514,-23.928928 297.18187,-22.92091 288.78034,-41.729288 276.03863,-70.253278 271.42108,-103.22308 267.53623,-122.59794 Z"
       id="path3224" />
    <path
       d="m 421.1568,155.26089 c 0.42353,-0.79533 1.2814,-3.98468 1.3463,-4.63236 1.62055,-16.15148 -29.79934,-19.78581 -54.25525,-18.97008 -11.0971,0.37008 -19.74554,1.67888 -24.91045,3.20374 -8.99805,2.65647 -13.4286,8.7504 -14.42547,16.37414 -2.01806,15.43367 2.56167,48.0374 17.8752,55.17064 15.83572,7.37631 39.81706,-3.1527 53.9735,-19.03473 9.58609,-10.75423 15.69053,-23.27522 20.39617,-32.11135 z"
       style="fill-opacity:1;fill-rule:evenodd;stroke-width:0.32847095"
       id="path3232"
       inkscape:connector-curvature="0" />
  </g>
  <g
     inkscape:groupmode="layer"
     id="layer2"
     inkscape:label="Feets"
     style="display:inline">
    <path
       d="m -24.936677,186.83749 c -12.352446,5.93475 -40.796223,5.81407 -47.696314,17.63584 -7.575394,13.00331 -2.677794,27.4066 -2.605596,44.00528 0.02444,11.74882 -0.168932,24.82544 -5.114325,38.74571 -4.053332,11.45993 -5.428377,15.5128 0.385657,25.59751 5.814199,10.10885 31.049374,14.95807 65.18713,23.11266 34.161701,8.13064 23.2809695,2.12307 61.520441,17.05667 23.691164,9.2639 57.129174,20.62758 78.793944,3.71544 7.98562,-6.24874 21.08556,-20.38583 21.88207,-34.16171 0.45845,-7.86507 -0.26573,-16.26081 -2.14715,-21.35129 -6.2487,-16.98546 -18.74567,-24.2469 -30.61506,-42.00332 C 92.916565,226.21025 69.828506,194.9437 51.372347,167.48868 38.344598,148.0677 27.874061,143.36298 19.019733,144.90699 c -27.2137201,4.80087 -18.43172079,29.6742 -43.956903,41.9305 v 0 0 h 3.29e-4 z"
       style="display:inline;fill-rule:evenodd;stroke-width:0.32847095;opacity:0.5"
       id="path3218"
       inkscape:connector-curvature="0"
       transform="translate(160,342.63782)" />
    <path
       d="m 321.20941,158.75901 c -11.98669,8.46837 -9.39062,33.85001 -10.09391,47.21986 -1.06773,20.45557 -1.21357,43.26472 -1.91686,52.33968 -1.16492,15.01986 -12.54516,48.9426 -11.16167,64.95759 1.35895,15.99088 2.52338,25.35707 12.47204,34.52922 9.97268,9.17216 27.51651,16.01483 49.18513,12.88451 21.6688,-3.13046 29.8699,-16.59751 43.91998,-27.12809 14.02485,-10.53107 28.46293,-23.02759 47.00127,-34.91765 18.53818,-11.91409 48.38462,-31.42345 52.67951,-36.68875 4.29489,-5.28972 7.20662,-9.85123 4.10086,-16.79136 -3.08178,-6.94 -13.90358,-17.66511 -25.72098,-27.41981 -30.81636,-25.47831 -17.51226,-49.16165 -30.37969,-61.68175 -3.92559,-4.22962 -6.8428,-6.56058 -11.39896,-7.48835 -24.59449,-5.00875 -31.3512,4.65135 -45.79243,3.23202 -15.57143,-1.52998 -9.71725,1.89331 -41.68244,-2.37215 -11.00303,-1.24986 -23.61609,-5.60677 -31.21185,-0.67596 v 0 z"
       style="display:inline;fill-rule:evenodd;stroke-width:0.32847095;opacity:0.5"
       id="path3220"
       inkscape:connector-curvature="0"
       transform="translate(160,342.63782)" />
  </g>
  <g
     inkscape:groupmode="layer"
     id="layer4"
     inkscape:label="Eyes"
     style="display:inline">
    <path
       style="display:inline;fill-rule:evenodd;stroke-width:0.32847095;opacity:0.2"
       d="m 242.73731,-232.18856 c -14.13158,-0.16716 -27.77823,10.79643 -32.26458,25.57518 -3.71572,12.32893 -3.5471,22.12499 -2.94405,27.48186 v 6.6e-4 c 4.15056,1.25459 8.46884,2.89594 13.41535,4.80196 -3.0644,-6.90091 -2.84652,-15.85274 1.20674,-23.23611 5.79088,-10.59237 17.25182,-13.99443 25.60021,-7.57601 8.32444,6.4179 10.39927,20.19537 4.58448,30.78774 -2.09946,3.83647 -4.94657,6.73151 -8.13158,8.56526 5.52517,1.90606 9.96509,3.52252 13.56033,4.99443 4.63781,-5.88758 10.77947,-15.27948 13.36723,-23.30796 4.2106,-13.0627 0.96554,-36.24042 -16.59997,-45.16797 -3.84246,-1.95279 -7.83732,-2.87222 -11.79416,-2.91903 z"
       id="path972"
       inkscape:connector-curvature="0"
       transform="translate(160,342.63782)" />
    <path
       style="display:inline;fill-rule:evenodd;stroke-width:0.32847095;opacity:0.2"
       d="m 150.33881,-225.90271 c -2.2513,-0.004 -4.66096,0.41662 -7.23213,1.31389 h -6.6e-4 c -11.14709,3.8843 -15.39377,22.63228 -11.46056,39.6186 2.17172,9.36168 6.00754,18.2647 11.72616,23.79041 1.1823,-0.9166 2.38844,-1.80928 3.59522,-2.6297 0.9405,-0.67537 1.88129,-1.32721 2.79842,-1.95478 -7.21441,-3.52246 -11.96708,-14.45226 -10.71252,-25.04463 1.30291,-11.02647 8.63788,-17.54127 16.38313,-14.52522 7.74528,3.01606 12.95661,14.42875 11.65366,25.45522 -0.16844,1.44747 -0.43364,2.82304 -0.79551,4.10204 2.2918,-1.1823 4.36691,-2.1234 6.2974,-2.87156 0.48302,-0.19288 0.94066,-0.38667 1.39921,-0.5312 0.72375,-5.54961 0.62745,-11.60582 -0.57932,-17.66237 -3.37961,-16.63222 -10.91551,-29.03894 -23.07251,-29.0607 z"
       id="path970"
       inkscape:connector-curvature="0"
       transform="translate(160,342.63782)" />
  </g>
  <g
     inkscape:groupmode="layer"
     id="layer3"
     inkscape:label="Beak"
     style="display:inline">
    <path
       sodipodi:nodetypes="cccssccccccccsccccccscccccscsccc"
       d="m 137.7652,-123.54574 c 0.27841,0.29431 0.17465,0.81553 0.48423,1.12373 3.64058,3.62596 7.85118,7.18028 11.5223,11.33899 4.22102,4.78184 8.08939,10.13043 11.68194,13.407818 6.60582,6.026358 12.88155,9.246917 22.04963,10.378467 17.70593,2.185415 30.94397,-2.724273 45.87563,-12.571963 7.02547,-4.635082 16.75434,-13.181182 22.37941,-17.406172 9.36681,-7.04954 12.0465,-6.49433 14.82277,-10.04267 2.87311,-3.69349 4.27305,-13.35014 3.42822,-17.91287 -0.67576,-3.52492 -1.90713,-5.86635 -5.72163,-8.28068 -4.2492,-2.67957 -11.56389,-5.50416 -24.23827,-9.80125 l -0.0237,-0.024 c -6.48586,-2.37023 -13.16777,-4.7584 -18.91508,-6.95198 -12.86739,-4.9972 -21.25152,-8.7834 -32.95313,-7.84635 -5.38138,0.43093 -10.67843,1.58688 -15.23409,3.35546 v 0.0239 c -8.57161,3.60551 -16.86684,9.15016 -23.67533,13.91898 -5.98714,4.17671 -12.1194,9.72892 -15.66826,15.42684 -2.10336,3.37146 -5.43275,10.32768 -2.32692,14.32725 0.008,0.0103 7.93251,4.06972 15.88669,8.77345 12.85944,7.60407 27.54857,11.5315 40.66359,10.80102 10.43132,-0.58094 22.07466,-3.87557 30.48207,-7.9222 8.46167,-4.07294 18.86596,-10.49625 29.00719,-18.32138 1.56947,-1.15898 4.55901,-4.09453 6.42805,-4.98018 1.64807,-0.78078 6.96056,-0.32785 6.71664,1.47628 -0.19104,1.41269 -6.42992,3.93426 -8.67876,5.60457 -11.09372,8.23946 -23.44457,16.3096 -31.47214,20.00953 -8.29382,3.82254 -22.25256,8.23598 -31.6869,8.79284 -8.61905,0.50853 -15.93797,-0.44761 -23.43043,-2.98111 -7.2438,-2.44944 -11.53793,-4.57629 -19.25073,-9.03091 -2.45988,-1.42067 -4.82478,-2.60672 -8.15393,-4.68538 z"
       style="display:inline;fill-rule:evenodd;stroke-width:0.32847095;opacity:0.5"
       id="path3222"
       inkscape:connector-curvature="0"
       transform="translate(160,342.63782)" />
    <path
       transform="translate(160,342.63782)"
       d="m 180.51947,-169.82904 c -1.03787,-1.54489 -5.35979,-0.74848 -7.43599,0 -2.05222,0.7726 -3.64553,3.01786 -2.80021,4.53895 0.4343,0.77243 1.37596,1.15897 2.10001,1.01389 1.11069,-0.24146 2.29365,-1.4728 3.79029,-2.60737 1.59345,-1.23134 3.91094,-2.3175 4.34528,-2.94547 v 0 z"
       style="display:inline;fill-opacity:1;fill-rule:evenodd;stroke-width:0.32847095"
       id="path3234"
       inkscape:connector-curvature="0" />
    <path
       transform="translate(160,342.63782)"
       d="m 193.94181,-169.78062 c -0.62784,-0.65178 7.0255,-2.22128 10.04271,0.14463 3.04154,2.36591 2.84866,4.22463 1.93144,5.21454 -0.96548,1.01389 -9.874,-4.51434 -11.97415,-5.35966 v 3.3e-4 z"
       style="display:inline;fill-opacity:1;fill-rule:evenodd;stroke-width:0.32847095"
       id="path3236"
       inkscape:connector-curvature="0" />
  </g>
</svg>
