<?xml version="1.0" encoding="UTF-8" standalone="no"?>
<svg
   xmlns:dc="http://purl.org/dc/elements/1.1/"
   xmlns:cc="http://creativecommons.org/ns#"
   xmlns:rdf="http://www.w3.org/1999/02/22-rdf-syntax-ns#"
   xmlns:svg="http://www.w3.org/2000/svg"
   xmlns="http://www.w3.org/2000/svg"
   xmlns:sodipodi="http://sodipodi.sourceforge.net/DTD/sodipodi-0.dtd"
   xmlns:inkscape="http://www.inkscape.org/namespaces/inkscape"
   width="964"
   height="964"
   viewBox="0 0 964 964"
   version="1.1"
   id="root"
   sodipodi:docname="mednafen-symbolic.svg"
   inkscape:version="0.92.1 r15371">
  <metadata
     id="metadata170">
    <rdf:RDF>
      <cc:Work
         rdf:about="">
        <dc:format>image/svg+xml</dc:format>
        <dc:type
           rdf:resource="http://purl.org/dc/dcmitype/StillImage" />
        <dc:title></dc:title>
      </cc:Work>
    </rdf:RDF>
  </metadata>
  <defs
     id="defs168" />
  <sodipodi:namedview
     pagecolor="#ffffff"
     bordercolor="#666666"
     borderopacity="1"
     objecttolerance="10"
     gridtolerance="10"
     guidetolerance="10"
     inkscape:pageopacity="0"
     inkscape:pageshadow="2"
     inkscape:window-width="1464"
     inkscape:window-height="848"
     id="namedview166"
     showgrid="false"
     inkscape:zoom="0.67634855"
     inkscape:cx="544.83324"
     inkscape:cy="476.45441"
     inkscape:window-x="0"
     inkscape:window-y="60"
     inkscape:window-maximized="0"
     inkscape:current-layer="layer6"
     inkscape:pagecheckerboard="true"
     scale-x="1"
     units="px" />
  <g
     inkscape:groupmode="layer"
     id="layer1"
     inkscape:label="Body"
     style="display:inline">
    <g
       id="#000000ff"
       transform="matrix(1.3067485,0,0,1.3067485,8.8711656,167.07362)"
       style="fill-opacity:1">
      <path
         d="m 482.53,0 h 17.05 c 16.58,1.23 34.4,4.6 46.95,16.37 9.53,8.68 13.24,22.11 12.43,34.68 -0.82,13.09 -3.24,26.85 -11.31,37.56 -3.56,4.88 -8.92,7.98 -14.54,9.92 35.6,3.94 70.88,13.2 102.91,29.43 17.31,8.83 33.66,19.85 47.29,33.76 11.42,11.89 21.1,26.19 24.47,42.56 2.01,9.29 1.42,19.04 -1.5,28.08 5.93,14.52 4.66,31 -0.15,45.65 -4.27,13.14 -12.43,25.33 -24.12,32.93 -3.32,2.23 -7.44,2.04 -11.23,1.61 -5.51,8.25 -12.18,15.71 -19.86,22 15.86,4.86 31.18,12 44.34,22.19 10.21,7.93 19.08,18.09 23.81,30.26 2.21,5.59 3.26,11.55 3.93,17.5 v 7.1 c -0.49,3.48 -1.14,7.18 -3.45,9.98 -2.62,3.23 -8.05,3.97 -11.18,1.09 -1.49,-1.51 -0.99,-3.82 -1.06,-5.72 0.81,-7.29 -2.49,-14.07 -4.59,-20.85 -4.46,-13.31 -12.44,-25.7 -24.11,-33.75 -11.26,-8.68 -25.49,-11.44 -38.46,-16.55 -5.04,-2.36 -10.81,-1.72 -15.91,-3.87 -4.31,4.91 -9.19,9.29 -14.53,13.07 17.49,6.08 34.46,14.48 48.33,26.92 12.03,10.63 21.36,25 23.53,41.14 0.87,7.44 1.77,15.71 -2.05,22.52 -2.55,4.65 -10.46,6.07 -13.54,1.32 -1.42,-4.24 0.48,-8.86 -0.86,-13.16 -3.48,-11.92 -7.27,-24.04 -14.43,-34.34 -6.62,-9.67 -16.06,-17.15 -26.41,-22.49 -7.8,-3.6 -16.07,-6.03 -24.15,-8.92 -4.6,-1.53 -9.15,-3.96 -14.15,-3.36 -3.14,0.29 -6.07,-0.95 -8.85,-2.2 -4.9,4.43 -10.45,8.01 -16.12,11.36 3.45,1.89 7.31,2.86 10.91,4.42 16.16,6.74 31.7,15.5 44.58,27.48 11.98,11.01 21.53,25.25 24.77,41.38 1.69,8.89 2.85,18.38 -0.11,27.13 -1.22,3.85 -4.39,6.87 -8.33,7.8 h -3.48 c -2.19,-0.7 -4.83,-1.59 -5.41,-4.1 -1.07,-4.66 0.85,-9.53 -0.61,-14.15 -4.33,-14.79 -9.1,-29.93 -18.65,-42.29 -7.75,-10.11 -18.25,-17.94 -29.64,-23.51 -15.82,-6.55 -32.43,-10.99 -48.15,-17.8 -13.66,8.5 -30.23,9.52 -45.89,9.38 -4.14,0.12 -8.23,-0.76 -12.09,-2.18 -10.97,13.03 -25.55,22.62 -40.86,29.82 -14.43,6.57 -29.57,11.52 -44.96,15.27 -24.23,5.76 -49.2,7.49 -74.04,7.57 -25.38,-0.54 -50.9,-1.07 -75.94,-5.59 -30.13,-5.11 -58.99,-16.5 -85.31,-31.9 -2.09,6.9 -3.64,13.96 -5.12,21.02 -1.03,4.75 0.33,9.64 -0.54,14.4 -0.67,3.92 -5.91,5.29 -8.76,2.78 -3.84,-3.32 -4.4,-8.82 -4.93,-13.55 -0.71,-11.7 1,-23.5 4.44,-34.68 -7.38,-5.6 -14.44,-11.69 -20.6,-18.63 -6.47,6.3 -11.71,13.84 -15.38,22.09 -5.09,11.39 -7.86,23.62 -10.47,35.77 -1.09,4.99 0.32,10.13 -0.68,15.12 -0.89,4.13 -6.83,4.84 -9.4,1.85 -3.49,-3.96 -3.96,-9.58 -4.32,-14.61 -0.43,-15.3 2.46,-30.85 9.43,-44.55 5.2,-10.41 12.56,-19.66 21.06,-27.57 -10.78,-14.2 -16.46,-32.12 -15.38,-49.95 0.24,-5.76 1.52,-11.4 2.65,-17.03 3.32,-7.76 5.32,-16.04 9.4,-23.48 3.67,-4.55 6.3,-10.35 11.55,-13.32 6.04,-1.91 9.63,-7.59 14.6,-11.17 6.01,-4.25 11.91,-8.68 18.32,-12.33 3.94,-2.34 8.21,-4.18 11.8,-7.07 18.92,-15.27 38.58,-29.64 59.01,-42.82 -8.57,-18.27 -18.07,-36.16 -29.34,-52.92 C 172.98,113.84 158.83,96.84 141.47,83.57 125.75,71.42 107.02,62.81 87.19,60.49 71.25,58.49 55,60.63 39.72,65.35 c 8.01,3.68 16.16,8.44 20.79,16.23 4.11,6.76 3.52,15.69 -0.63,22.29 -5.94,9.69 -16.67,16.08 -27.85,17.56 -8.22,1.16 -17.11,-1.46 -22.7,-7.75 C 3.13,106.83 0.96,97.45 0,88.51 V 78.11 C 1.27,69.72 5.56,61.69 12.6,56.79 24.82,48.02 40.42,46.27 55.04,45.78 c 18.03,-0.03 36.14,2.32 53.41,7.57 24.12,7.89 44.2,24.53 61.4,42.73 22.5,24.25 40.51,52.41 54.88,82.13 31.42,-19.49 64.46,-36.44 98.99,-49.69 C 343.44,93.77 366.6,60.24 396.93,33.86 409.5,23.13 423.45,13.64 439.09,8.02 453.07,3.17 467.83,1.11 482.53,0 m -81.3,46.28 c -24.35,20.92 -42.93,47.66 -58.77,75.36 55.36,-18.93 114.29,-28.58 172.82,-24.78 -11,-4.72 -20.27,-13.71 -24.44,-25.02 -3.08,-8.22 -2.78,-17.78 1.49,-25.53 4.73,-8.74 13.05,-14.95 21.88,-19.15 0.67,-0.19 2.56,-1.36 0.86,-1.72 -14.91,-6.01 -31.06,-9.33 -47.18,-8.35 -24.87,1.3 -48.01,13.21 -66.66,29.19 M 503.67,45.8 c -4.94,12.48 -2.12,28.32 8.48,37.04 5.71,4.79 13.71,6.82 20.96,4.93 8.87,-2.19 16.01,-9.48 18.94,-18.02 0.8,-2.02 1.38,-4.14 1.66,-6.3 0.92,-4.95 0.74,-10.16 -0.83,-14.95 -2.44,-11.39 -13.01,-21.1 -24.96,-20.8 -10.97,-0.08 -20.51,8.16 -24.25,18.1 M 16.16,69.16 c -5.22,2.78 -9.3,7.61 -11.05,13.28 -1.39,3.77 -1.64,7.92 -0.85,11.86 0.43,1.81 0.96,3.62 1.85,5.26 4.14,10.21 16.36,15.8 26.91,13.37 9.58,-1.8 17.57,-10.07 18.79,-19.77 C 52.95,85.65 50.14,77.69 44.49,72.6 37.08,65.54 25.06,64.21 16.16,69.16 m 328.34,58.49 c -2.3,0.9 -4.83,1.38 -6.87,2.8 -1.91,3 -3.4,6.24 -5.03,9.4 -4.45,8.33 -8.43,16.9 -12.45,25.45 -1.29,2.81 -2.57,5.62 -3.78,8.46 h -0.16 c -1.14,2.82 -2.33,5.61 -3.54,8.4 7.73,0.42 15.52,1.17 23.21,-0.04 5.89,-0.81 11.55,-2.76 17.02,-5 40.42,-17.19 80.95,-34.4 122.97,-47.33 26.16,-8.04 53,-14.35 80.35,-16.46 -2.53,-0.72 -5.04,-1.62 -7.65,-1.97 -12.03,-3.21 -24.36,-5.18 -36.72,-6.55 -56.61,-5.92 -113.96,3.94 -167.35,22.84 m 148.5,2.39 c -24.38,5.08 -48.32,12.88 -70.41,24.47 -10.71,5.85 -21.41,12.41 -29.32,21.88 -3.22,3.92 -5.96,8.98 -4.81,14.21 1.27,4.88 5.73,8.09 10.2,9.86 21.23,8.36 41.41,19.48 59.59,33.28 13.65,10.5 26.44,22.46 36.07,36.84 5.31,8.19 10.26,17.44 9.94,27.48 0.01,4.07 -2.23,7.55 -3.89,11.1 7.77,-1.37 15.11,-4.35 22.51,-6.99 27.77,-10.41 55.05,-22.07 82.06,-34.27 18.91,-8.72 37.84,-17.5 55.79,-28.1 4.35,-2.49 8.62,-5.54 11.11,-10.02 4.09,-6.82 4.07,-15.25 2.52,-22.83 -3.51,-15.05 -12.66,-28.07 -22.96,-39.29 -12.58,-13.46 -27.57,-24.58 -43.69,-33.42 -10.01,-4.02 -20.69,-6.18 -31.32,-7.81 -27.72,-3.99 -56.03,-1.93 -83.39,3.61 m -265.07,55.23 c 0.42,0.98 0.85,1.96 1.28,2.94 0.48,1.19 0.97,2.38 1.46,3.57 22.01,-6.08 44.77,-9.45 67.61,-9.82 0.99,-2.4 1.97,-4.8 2.95,-7.21 1.39,-3.26 2.8,-6.51 4.19,-9.76 2.31,-5.14 4.85,-10.18 7.11,-15.34 2.35,-3.87 4.04,-8.15 6.3,-12.09 -31.64,13.16 -61.95,29.4 -90.9,47.71 m 4.66,10.95 c 0.12,0.53 0.37,1.58 0.49,2.11 l 0.23,-0.05 c 0.51,1.46 1.03,2.92 1.56,4.39 0.46,1.43 0.92,2.87 1.38,4.31 17.91,-1.6 35.92,-2.21 53.89,-1.45 0.61,-1.99 1.22,-3.97 1.82,-5.96 0.64,-2 1.31,-3.99 1.97,-5.99 l 0.13,0.01 c 0.45,-1.38 0.9,-2.75 1.36,-4.12 -21.12,0 -42.22,2.1 -62.83,6.75 m 76.58,-6.04 c -0.2,0.66 -0.6,1.99 -0.8,2.65 l -0.18,-0.02 c -0.41,0.93 -0.81,1.86 -1.21,2.8 -0.45,1.14 -0.89,2.29 -1.33,3.43 -0.34,0.82 -0.68,1.64 -1.02,2.47 -0.61,1.56 -1.22,3.13 -1.83,4.69 31.97,2.77 63.85,10.03 92.77,24.21 36.11,17.28 66.57,45.39 88.04,79.06 1.27,1.8 3.64,5.46 5.98,3 2.99,-6.37 1.92,-13.78 1.3,-20.56 -1.66,-14.57 -11.3,-26.49 -21.22,-36.58 -15.35,-14.98 -33.57,-26.69 -52.66,-36.31 -33.57,-16.59 -70.45,-26.54 -107.84,-28.84 m -103.36,9.71 c 4.46,-1.52 8.89,-3.16 13.35,-4.69 -0.48,-1.11 -0.96,-2.21 -1.43,-3.3 -4.03,2.57 -8.12,5.08 -11.92,7.99 m -10.18,8.14 c -1.81,3.86 4.66,2.43 6.85,2.25 7.47,-0.26 14.86,-1.46 22.29,-2.2 -0.51,-1.07 -1.06,-2.11 -1.64,-3.13 -0.4,-1.19 -0.81,-2.37 -1.22,-3.55 -0.23,-0.49 -0.7,-1.48 -0.93,-1.97 -8.54,2.52 -17.31,4.72 -25.35,8.6 m 45.48,17.46 c 0.32,3.5 0.43,7.02 0.43,10.54 -0.53,2.8 -1.97,5.23 -3.98,7.21 -0.45,-2.27 -1.1,-4.49 -1.93,-6.65 -1.27,-3.32 -2.46,-6.66 -3.69,-10 -25.17,3.3 -49.85,10.45 -72.81,21.29 -0.38,-0.49 -1.13,-1.48 -1.51,-1.98 -1.74,1 -3.48,1.99 -5.22,2.98 6.81,0.14 13.58,1.15 20.17,2.84 5.54,1.63 10.94,3.78 15.82,6.88 l 0.16,-0.08 c 2.75,2.07 5.38,4.3 7.76,6.79 6.23,7.36 7.23,18.01 3.55,26.77 -6.7,16.46 -20.55,29.88 -37.23,36.05 -6.6,2.31 -13.51,3.69 -20.5,4 -7.88,0.3 -15.78,-0.82 -23.27,-3.26 -5.43,-1.97 -10.49,-4.8 -15.06,-8.33 0.69,7.73 2.84,15.29 6.29,22.24 -3.13,1.48 -7.28,5.08 -4.51,8.76 3.72,3.92 9.42,4.94 14.52,5.93 13.57,16.75 31.78,29.09 50.86,38.77 15.67,7.94 32.16,14.23 49.2,18.55 -1.46,-4.54 -2.52,-9.19 -3.45,-13.86 -0.83,-4.17 -1.27,-8.44 -2.41,-12.54 -3.78,-2.98 -6.7,-6.91 -7.57,-11.74 -0.15,-3.25 0.29,-6.55 2,-9.36 -0.38,3.55 -0.76,7.16 0.15,10.68 2.16,4.81 6.77,8.42 12.05,9.01 3.09,0.35 5.91,-1.19 8.58,-2.5 3.29,-1.87 6.66,-4.02 10.54,-4.27 4.3,0.24 6.2,4.66 8.37,7.72 l 0.1,0.01 c 4.28,4.84 10.75,8.39 17.36,7.45 3.45,-0.44 6.3,-2.59 8.75,-4.91 2.14,-2.67 3.88,-5.64 5.18,-8.8 0.17,-0.02 0.51,-0.08 0.68,-0.1 -0.15,6.97 -5.07,12.88 -11.18,15.76 -0.58,3 -1.56,5.89 -2.46,8.8 -2.4,4.77 -4.93,9.48 -8.04,13.84 -1.4,1.02 0.52,1.24 1.17,1.33 10.33,0.95 20.71,1.39 31.09,1.69 26.01,0.79 52.25,0.4 77.89,-4.57 17.88,-3.49 35.46,-8.84 52.05,-16.42 12.98,-6.15 25.56,-14.05 34.74,-25.29 8.24,-10.45 11.93,-24.76 8.3,-37.74 -2.95,-9.9 -7.58,-19.24 -12.98,-28.02 1.63,6.15 3.15,12.53 2.19,18.93 -0.33,4.01 -2.02,7.68 -3.42,11.38 l 0.02,0.77 -0.47,0.01 c -4.45,7.21 -11.08,12.9 -18.74,16.48 -25.91,12 -59.13,5.32 -78.34,-15.84 -8.28,-9.3 -15.93,-20.7 -15.77,-33.63 0.22,-10.44 7.62,-19.18 16.4,-24.04 14.74,-8.25 32.25,-10.25 48.86,-8.77 7.27,0.98 14.57,2.45 21.24,5.63 2.3,1.1 4.66,2.07 7.09,2.87 -6.56,-7.44 -14.24,-13.77 -22.01,-19.89 -2.12,-1.62 -4.4,-3.01 -6.7,-4.34 -32.48,-18.77 -68.97,-30.35 -106.2,-34.55 -1.14,3.09 -2.27,6.18 -3.41,9.27 -1.1,3.02 -2.13,6.06 -3.09,9.14 -2.6,-2.51 -3.45,-6.05 -3.83,-9.51 0.14,-3.28 0.38,-6.54 0.71,-9.8 -14.81,-1.1 -29.7,-0.92 -44.49,0.42 m 447.86,31.17 c -3.21,2.64 -6.39,5.32 -9.79,7.72 4.47,7.84 2.7,17.25 1.42,25.7 1.28,-1.52 2.55,-3.06 3.84,-4.58 0.11,0.82 0.33,2.45 0.45,3.27 2.28,-0.79 4.53,-2.11 5.47,-4.46 2.73,-6.02 4.09,-12.68 3.94,-19.29 0.11,-4.09 -1.39,-8.05 -0.97,-12.15 -1.47,1.25 -2.93,2.5 -4.36,3.79 M 112,263.12 c -7.89,4.57 -14.85,11.84 -16.66,21.04 -2.09,10.97 2.24,22.74 10.27,30.35 5.11,5 11.91,7.94 18.88,9.23 l 0.05,0.18 c 4.23,0.29 8.62,1.65 12.8,0.52 14.59,-0.42 28.9,-5.89 40.56,-14.58 8.71,-6.66 16.31,-16.42 16.38,-27.85 0.33,-5.65 -3.04,-10.59 -6.63,-14.61 -7.76,-8.1 -19,-11.75 -29.89,-13.04 -15.62,-1.62 -32.04,0.83 -45.76,8.76 m 546.87,14.87 c -6.55,3.94 -13.23,7.67 -19.97,11.29 3.14,12.09 0.88,25.02 -4.04,36.33 2.01,-1.37 3.94,-2.86 5.75,-4.48 3.21,3.38 7.85,0.51 11.09,-1.35 14.86,-9.19 18.65,-29.83 13.3,-45.5 -2.02,1.27 -4.07,2.5 -6.13,3.71 m -283.44,4.58 c -6.8,1.02 -13.64,2.77 -19.68,6.15 -7.03,5.04 -12.36,13.33 -12,22.22 0.34,8.6 5.14,16.26 10.65,22.57 10.18,11.14 23.61,19.95 38.65,22.55 11.35,1.75 23.52,1.46 33.96,-3.81 9.66,-4.66 18.63,-12.58 21.26,-23.35 2.45,-9.52 1.67,-21.14 -5.94,-28.19 -9.14,-8.51 -20.95,-13.9 -33.13,-16.34 -11.06,-2.37 -22.52,-3.38 -33.77,-1.8 m 243.72,16.79 c -7.71,3.5 -15.38,7.07 -23.11,10.52 3.01,12.47 0.43,25.7 -5.97,36.69 1.62,-0.99 3.9,-1.36 5.16,-2.83 2.62,1.7 5.85,1.49 8.76,0.72 5.69,-1.55 11.11,-4.07 16.02,-7.34 -2.83,-2.07 -6.44,-5.5 -3.3,-9.02 3.57,0.4 7.16,0.72 10.73,1.25 4.45,-6.03 8.83,-13.55 7.06,-21.31 -2.08,-4.91 -6.1,-9.19 -11.33,-10.69 -1.35,0.67 -2.67,1.35 -4.02,2.01 m -43.81,19.08 -0.21,0.37 c -7.89,2.39 -15.43,5.76 -23.25,8.37 1.79,11.45 -0.52,23.5 -6.08,33.64 -2.42,1.53 2.61,2.37 1.6,0.01 0.56,-0.02 1.66,-0.05 2.21,-0.07 0.13,2.08 2.61,2.61 4.3,2.49 6.7,-0.55 13.02,-3.3 18.86,-6.51 -1.9,-1.57 -4.16,-2.92 -5.37,-5.13 -0.83,-1.56 0.22,-3.18 0.61,-4.69 4.79,0.14 9.56,0.64 14.29,1.42 4.89,-5.79 8.55,-13.46 7.09,-21.2 -0.8,-3.76 -2.1,-7.99 -5.58,-10.1 -2.83,-1.55 -5.81,0.44 -8.47,1.4 m -47.63,16.81 c -15.08,3.33 -30.41,8.28 -46.04,5.81 1.37,10.33 -0.21,20.88 -3.94,30.58 -1.96,1.14 1.62,2.64 2.1,0.87 l 1.22,0.68 c 1.27,3.64 5.3,4.98 8.8,5.35 8.98,0.87 17.96,-1.1 26.49,-3.76 -2.06,-1.92 -4.79,-3.74 -5.2,-6.76 0.29,-1.29 0.92,-2.46 1.48,-3.64 6.19,0.24 12.31,1.25 18.45,1.97 8.37,-6.26 13.64,-16.93 12.85,-27.44 -0.1,-2.82 -2.01,-5.67 -4.95,-6.05 -3.87,-0.56 -7.76,0.89 -11.26,2.39 m -298.35,52.06 c -3.84,2.27 -8.51,2.51 -12.81,1.75 2.93,7.18 4.13,14.88 6,22.37 2.14,7.35 4.74,16.26 12.58,19.33 5.16,2.38 11.06,0.07 14.91,-3.66 6.05,-5.84 9.77,-13.56 13.36,-21.04 1.22,-2.66 2.43,-5.31 3.67,-7.95 -5.53,0.03 -10.95,-1.7 -15.69,-4.47 -4.64,-2.86 -5.71,-9.75 -11.43,-11.12 -4.09,-0.06 -7.17,3.02 -10.59,4.79 z"
         id="path2"
         inkscape:connector-curvature="0"
         style="opacity:1;fill-opacity:1" />
    </g>
    <g
       id="#111d008a"
       transform="matrix(1.3067485,0,0,1.3067485,8.8711656,167.07362)">
      <path
         d="m 547.4,360.83 c 1.01,2.36 -4.02,1.52 -1.6,-0.01 0.4,0 1.2,0.01 1.6,0.01 z"
         id="path152"
         inkscape:connector-curvature="0"
         style="opacity:0.54000005;fill:#111d00" />
    </g>
  </g>
  <g
     inkscape:groupmode="layer"
     id="layer2"
     inkscape:label="Belly"
     style="display:inline">
    <g
       id="g5143"
       style="opacity:0.6;fill-opacity:1">
      <path
         inkscape:connector-curvature="0"
         id="path97"
         d="m 914.87891,497.51172 c -1.92092,1.63344 -3.82862,3.26546 -5.69727,4.95117 -4.19466,3.44982 -8.35002,6.95364 -12.79297,10.08984 5.84117,10.24491 3.52811,22.54002 1.85547,33.58204 1.67264,-1.98625 3.33187,-3.99813 5.01758,-5.98438 0.14374,1.07153 0.43108,3.20191 0.58789,4.27344 2.97938,-1.03233 5.9201,-2.75727 7.14844,-5.82813 3.56742,-7.86663 5.34444,-16.56942 5.14843,-25.20703 0.14374,-5.3446 -1.8164,-10.51928 -1.26757,-15.87695 z"
         style="opacity:1;stroke-width:1.30674851;fill-opacity:1" />
      <path
         inkscape:connector-curvature="0"
         id="path99"
         d="m 877.85938,525.48828 c -2.63964,1.65957 -5.31982,3.26649 -8.01172,4.84766 -8.5592,5.14858 -17.28822,10.02347 -26.09571,14.7539 4.10319,15.79859 1.14991,32.69528 -5.27929,47.47461 2.62656,-1.79025 5.15041,-3.73854 7.51562,-5.85547 4.19466,4.41681 10.25638,0.66688 14.49024,-1.76367 19.41829,-12.00902 24.37195,-38.98028 17.38086,-59.45703 z"
         style="opacity:1;stroke-width:1.30674851;fill-opacity:1" />
      <path
         inkscape:connector-curvature="0"
         id="path101"
         d="m 823.19727,555.63477 c -1.76411,0.87552 -3.48785,1.7645 -5.25196,2.62695 -10.07503,4.57362 -20.09805,9.23976 -30.19922,13.74805 3.93331,16.29515 0.56046,33.58218 -7.80273,47.94335 2.11694,-1.29368 5.09763,-1.77634 6.74414,-3.69726 3.42368,2.22147 7.64463,1.94564 11.44727,0.93945 7.4354,-2.02546 14.51746,-5.31677 20.93359,-9.58984 -3.6981,-2.70497 -8.41569,-7.18735 -4.3125,-11.78711 4.6651,0.5227 9.35639,0.94023 14.02148,1.63281 5.81504,-7.87969 11.53951,-17.70728 9.22657,-27.84765 -2.71804,-6.41614 -7.97235,-12.00863 -14.80664,-13.96875 z"
         style="opacity:1;stroke-width:1.30674851;fill-opacity:1" />
      <path
         inkscape:connector-curvature="0"
         id="path103"
         d="m 768.96289,580.61914 c -2.81829,-0.0643 -5.66061,1.63531 -8.26758,2.57617 l -0.27343,0.48242 c -10.31026,3.12313 -20.16405,7.52689 -30.38282,10.9375 2.33908,14.96227 -0.67979,30.70856 -7.94531,43.95899 0.5227,0 1.56911,0.0137 2.0918,0.0137 0.73178,-0.0262 2.16801,-0.0657 2.88672,-0.0918 0.16988,2.71804 3.41073,3.41072 5.61914,3.25391 8.75521,-0.71871 17.01507,-4.31315 24.64648,-8.50781 -2.48282,-2.0516 -5.43641,-3.81522 -7.01758,-6.70313 -1.0846,-2.03853 0.28725,-4.15571 0.79688,-6.1289 6.25933,0.18294 12.49291,0.8362 18.67383,1.85546 6.39,-7.56606 11.17153,-17.58888 9.26367,-27.70312 -1.04539,-4.91337 -2.74354,-10.44003 -7.29102,-13.19727 -0.92452,-0.50636 -1.86135,-0.72465 -2.80078,-0.74609 z"
         style="opacity:1;stroke-width:1.30674851;fill-opacity:1" />
      <path
         inkscape:connector-curvature="0"
         id="path105"
         d="m 711.27344,601.88086 c -4.42337,-0.10076 -8.81644,1.56419 -12.81836,3.2793 -19.70577,4.35148 -39.73764,10.82142 -60.16211,7.59375 1.79024,13.49872 -0.27427,27.28352 -5.14844,39.95898 0.69257,0.28749 2.06463,0.84924 2.74414,1.13672 l 1.59375,0.88867 c 1.65957,4.75657 6.92638,6.50869 11.5,6.99219 11.7346,1.13687 23.46867,-1.43811 34.61524,-4.91406 -2.69191,-2.50895 -6.25916,-4.88761 -6.79493,-8.83399 0.37896,-1.6857 1.20182,-3.2139 1.9336,-4.75586 8.08877,0.31362 16.08594,1.63336 24.10937,2.57422 10.93749,-8.18024 17.8253,-22.12349 16.79297,-35.85742 -0.13068,-3.68503 -2.6269,-7.40969 -6.46875,-7.90625 -0.63214,-0.0915 -1.26457,-0.14186 -1.89648,-0.15625 z"
         style="opacity:1;stroke-width:1.30674851;fill-opacity:1" />
    </g>
  </g>
  <g
     inkscape:groupmode="layer"
     id="layer3"
     inkscape:label="Shell"
     style="display:inline">
    <g
       id="g5131"
       style="opacity:0.8;stroke:none">
      <path
         id="path5126"
         d="m 636.05859,301.79883 c -60.22391,-0.25424 -120.32578,12.01527 -177.01171,32.08203 -3.00553,1.17607 -6.31275,1.80262 -8.97852,3.6582 -2.49589,3.92025 -4.44227,8.15388 -6.57227,12.28321 -5.81503,10.88521 -11.0164,22.08511 -16.26953,33.25781 -1.68571,3.67196 -3.35829,7.34352 -4.93945,11.05469 h -0.20899 c -1.48969,3.68503 -3.04383,7.33073 -4.625,10.97656 10.10117,0.5488 20.27924,1.52842 30.32813,-0.0527 7.69675,-1.05847 15.09428,-3.60608 22.24219,-6.5332 52.81878,-22.463 105.77988,-44.95335 160.68945,-61.84961 34.18455,-10.50626 69.25847,-18.75057 104.99805,-21.50781 -3.30608,-0.94086 -6.58549,-2.11686 -9.9961,-2.57422 -15.72018,-4.19466 -31.83296,-6.7703 -47.98437,-8.56055 -13.87032,-1.45049 -27.77405,-2.1757 -41.67188,-2.23437 z"
         style="display:inline;opacity:1;stroke:none;stroke-width:1.30674851"
         inkscape:connector-curvature="0" />
      <path
         id="path5124"
         d="m 425.50195,346.83008 c -41.34552,17.19681 -80.95283,38.41914 -118.7832,62.3457 0.54884,1.28062 1.10998,2.56118 1.67187,3.8418 0.62724,1.55503 1.26791,3.10903 1.90821,4.66406 28.76154,-7.94503 58.50347,-12.34854 88.34961,-12.83203 1.29368,-3.1362 2.57485,-6.27262 3.85547,-9.42188 1.81638,-4.26 3.65823,-8.50697 5.47461,-12.7539 3.01859,-6.71669 6.33776,-13.30209 9.29101,-20.04492 3.07086,-5.05711 5.27917,-10.65024 8.23242,-15.79883 z"
         style="display:inline;opacity:1;stroke:none;stroke-width:1.30674851"
         inkscape:connector-curvature="0" />
      <path
         id="path5120"
         d="m 293.38867,417.83789 c -5.2662,3.35834 -10.61052,6.63877 -15.57617,10.44141 5.8281,-1.98626 11.61721,-4.12959 17.44531,-6.12891 -0.62724,-1.45049 -1.25497,-2.88815 -1.86914,-4.3125 z"
         style="display:inline;opacity:1;stroke:none;stroke-width:1.30674851"
         inkscape:connector-curvature="0" />
    </g>
    <path
       style="display:inline;opacity:0.8;stroke:none;stroke-width:1.30674851"
       d="m 721.09766,329.57812 c -22.82395,0.15199 -45.6546,2.90117 -68,7.42579 -31.85853,6.63829 -63.14174,16.8294 -92.00782,31.97461 -13.99527,7.64448 -27.97807,16.21688 -38.31445,28.59179 -4.20773,5.12245 -7.78792,11.73602 -6.28516,18.57031 1.65957,6.37694 7.48892,10.57183 13.33008,12.88477 27.74227,10.92442 54.11245,25.45516 77.86914,43.48828 17.83711,13.72086 34.54884,29.34959 47.13282,48.14063 6.93884,10.70227 13.40839,22.78844 12.99023,35.9082 0.0131,5.31846 -2.91477,9.8669 -5.08398,14.50586 10.15344,-1.79025 19.74607,-5.68495 29.41601,-9.13477 36.28841,-13.60325 71.9352,-28.83892 107.23047,-44.78125 24.71062,-11.39484 49.44817,-22.86917 72.9043,-36.7207 5.68436,-3.2538 11.26376,-7.23952 14.51758,-13.09375 5.34459,-8.91202 5.31842,-19.92687 3.29296,-29.83203 -4.58668,-19.66656 -16.54244,-36.68203 -30.00195,-51.34375 -16.4389,-17.58883 -36.02702,-32.11826 -57.0918,-43.66992 -13.08056,-5.25313 -27.03699,-8.07703 -40.92773,-10.20703 -13.58365,-1.95522 -27.27634,-2.79823 -40.9707,-2.70704 z"
       id="path11"
       inkscape:connector-curvature="0" />
    <g
       id="g5136"
       style="opacity:0.8;stroke:none">
      <path
         id="path5122"
         d="m 394.91016,414.66406 c -27.59853,0 -55.16948,2.74392 -82.10157,8.82032 0.15681,0.69258 0.48187,2.06327 0.63868,2.75585 l 0.30078,-0.0645 c 0.66644,1.90786 1.34648,3.81541 2.03906,5.73633 0.6011,1.86865 1.20162,3.7511 1.80273,5.63281 23.40386,-2.09079 46.9396,-2.88766 70.42188,-1.89453 0.79711,-2.60043 1.5929,-5.18863 2.37695,-7.78906 0.83632,-2.6135 1.71177,-5.21463 2.57422,-7.82813 l 0.16992,0.0137 c 0.58804,-1.80332 1.17624,-3.59258 1.77735,-5.38282 z"
         style="display:inline;opacity:1;stroke:none;stroke-width:1.30674851"
         inkscape:connector-curvature="0" />
      <path
         id="path9"
         d="m 297.63672,427.67773 c -11.15963,3.29301 -22.62069,6.16811 -33.12695,11.23829 -2.36521,5.04405 6.08939,3.17662 8.95117,2.9414 9.76141,-0.33975 19.41975,-1.90801 29.1289,-2.875 -0.66645,-1.39822 -1.38662,-2.75696 -2.14453,-4.08984 -0.5227,-1.55504 -1.05799,-3.09867 -1.59375,-4.64063 -0.30056,-0.64031 -0.91429,-1.93391 -1.21484,-2.57422 z"
         style="display:inline;opacity:1;stroke:none;stroke-width:1.30674851"
         inkscape:connector-curvature="0" />
      <path
         id="path17"
         d="m 412.87891,415.5918 -8.32422,20.93354 c 41.77675,3.61969 83.43539,13.10703 121.22656,31.63672 47.18669,22.58062 86.99099,59.31233 115.04687,103.31055 1.65957,2.35215 4.75667,7.13453 7.81446,3.91992 3.90718,-8.32398 2.5094,-18.00548 1.69922,-26.86524 -2.16921,-19.03932 -14.76752,-34.61568 -27.73047,-47.80078 -20.05859,-19.57509 -43.86667,-34.8783 -68.8125,-47.44922 -43.86755,-21.67896 -92.06059,-34.68002 -140.91992,-37.68554 z"
         style="display:inline;opacity:1;stroke:none;stroke-width:1.30674851"
         inkscape:connector-curvature="0"
         sodipodi:nodetypes="cccccccccc" />
    </g>
  </g>
  <g
     inkscape:groupmode="layer"
     id="layer4"
     inkscape:label="Head"
     style="display:inline">
    <path
       style="display:inline;opacity:0.8;stroke:none;stroke-width:1.30674851"
       d="m 297.57031,672.75973 c 4.03785,0.45737 7.72388,-1.55574 11.21289,-3.26758 4.29921,-2.44362 8.70326,-5.2534 13.77344,-5.58008 5.61902,0.31362 8.10185,6.08924 10.9375,10.08789 l 0.13086,0.0137 c 5.59289,6.32467 14.04598,10.96272 22.68359,9.73438 4.50828,-0.57497 8.23401,-3.38436 11.43555,-6.41602 2.79644,-3.48901 5.06881,-7.36873 6.76758,-11.49805 0.22215,-0.0261 0.66653,-0.10471 0.88867,-0.13086 -0.19601,9.10805 -6.62513,16.83029 -14.60937,20.59376 -0.75791,3.92024 -2.03877,7.69736 -3.21485,11.5 -3.13619,6.23319 -6.44187,12.3885 -10.50586,18.08593 -1.82944,1.33288 0.67991,1.61872 1.5293,1.73633 13.49871,1.24141 27.0629,1.81696 40.62695,2.20898 33.98853,1.03233 68.27818,0.52189 101.78321,-5.97265 23.36467,-4.56055 46.33666,-11.54992 68.01562,-21.45508 16.9616,-8.0365 33.40054,-18.36097 45.39649,-33.04883 10.76762,-13.65552 15.58919,-32.35481 10.8457,-49.3164 -3.85491,-12.93681 -9.9045,-25.14198 -16.96094,-36.61524 2.13,8.03651 4.11581,16.37314 2.86133,24.73633 -0.43123,5.24006 -2.6393,10.03612 -4.46875,14.87109 l 0.0254,1.00586 -0.61328,0.0137 c -5.81503,9.42164 -14.47859,16.85699 -24.48828,21.53515 -33.85786,15.68098 -77.26846,6.95158 -102.3711,-20.69922 -10.81988,-12.15276 -20.8165,-27.04905 -20.60742,-43.94531 0.28748,-13.64245 9.95644,-25.06326 21.42969,-31.41406 19.26147,-10.78068 42.14255,-13.39492 63.84766,-11.46094 9.50005,1.28062 19.03984,3.20196 27.75585,7.35742 3.00552,1.43742 6.09023,2.7046 9.26563,3.75 -8.57227,-9.72221 -18.60828,-17.99293 -28.76172,-25.99023 -2.7703,-2.11693 -5.75034,-3.93391 -8.75586,-5.67188 -42.44319,-24.52767 -90.12515,-39.6601 -138.77539,-45.14843 -1.4897,4.03785 -2.96734,8.07542 -4.45703,12.11328 -1.43743,3.94638 -2.78263,7.91857 -4.03711,11.94336 -3.39754,-3.27994 -4.5093,-7.90444 -5.00586,-12.42579 0.18294,-4.28613 0.4965,-8.54663 0.92773,-12.80664 -9.67648,-0.71872 -19.37879,-1.01989 -29.07813,-0.92188 -9.69934,0.098 -19.39519,0.59518 -29.05859,1.4707 0.41816,4.57362 0.5625,9.17368 0.5625,13.77344 -0.69258,3.65889 -2.57462,6.8345 -5.20118,9.42187 -0.58804,-2.96632 -1.43687,-5.86883 -2.52148,-8.6914 -1.65957,-4.33841 -3.21497,-8.70187 -4.82227,-13.06641 -32.89086,4.31227 -65.14158,13.65515 -95.14453,27.82031 -0.49656,-0.64031 -1.47608,-1.93452 -1.97265,-2.58789 -2.27374,1.30674 -4.54853,2.60084 -6.82227,3.89454 8.89895,0.18292 17.74595,1.50253 26.35742,3.71093 7.23939,2.13 14.29494,4.93932 20.67188,8.99024 l 0.20898,-0.10352 c 3.59355,2.70497 7.03057,5.61925 10.14063,8.87305 8.14105,9.61767 9.44751,23.53336 4.63867,34.98047 -8.75521,21.50908 -26.85382,39.04673 -48.65039,47.10937 -8.62454,3.01858 -17.65294,4.82147 -26.78711,5.22656 -10.29718,0.39202 -20.62065,-1.07129 -30.4082,-4.25976 1.68571,4.36454 3.46204,8.67676 5.34375,12.96289 9.66994,-1.73797 19.549,-2.03771 29.34961,-1.50195 v -0.002 c 7.53994,0.69258 15.26261,1.76516 22.12304,5.17578 2.63963,1.39822 5.65931,3.5533 5.72461,6.85938 -0.35283,4.2992 -4.61385,6.53537 -7.91992,8.48242 -8.92509,3.88105 -18.62061,5.37015 -28.23828,6.36328 -8.27171,0.20908 -16.56841,0.24848 -24.76172,-0.96679 17.73258,21.88803 41.52818,38.01278 66.46094,50.66211 20.47675,10.37557 42.02401,18.59508 64.29101,24.24023 -1.90786,-5.93264 -3.29253,-12.00882 -4.50781,-18.11133 -1.0846,-5.44915 -1.65875,-11.02905 -3.14844,-16.38672 -4.93951,-3.89411 -8.75571,-9.03019 -9.89258,-15.34179 -0.19601,-4.24693 0.37875,-8.55851 2.61329,-12.23047 -0.49656,4.63895 -0.99383,9.35533 0.19531,13.95508 2.82258,6.28545 8.84646,11.00441 15.74609,11.77539 z M 169.53516,609.78711 c -1.88171,-4.28613 -3.65804,-8.59835 -5.34375,-12.96289 -7.09564,-2.5743 -13.70785,-6.27194 -19.67969,-10.88477 0.90166,10.10117 3.71047,19.97865 8.21875,29.06055 5.29233,-2.58736 11.04193,-4.10215 16.80469,-5.21289 z m 369.41796,69.42773 c -17.18374,-0.70564 -34.11825,-4.77062 -50.23046,-10.66406 -8.74215,-3.38447 -17.55,-7.13497 -24.88086,-13.09375 -2.46975,-2.2084 -5.55401,-5.14774 -4.65235,-8.80664 2.2084,-3.68503 6.91385,-4.28558 10.79493,-4.7168 1.6612,-0.1176 3.32126,-0.18215 4.98046,-0.19726 11.61443,-0.10581 23.16239,2.17022 34.39063,5.00586 13.51178,3.64583 26.99741,8.24568 38.84961,15.83789 3.93332,2.32602 6.87385,5.89221 9.38281,9.64258 -3.00552,7.44846 -12.06182,6.57402 -18.63477,6.99218 z"
       id="path25"
       inkscape:connector-curvature="0"
       sodipodi:nodetypes="cccccccccccccccccccccccccccccccccccccsccccccccccccccccccccccccccccccccccccccccccccccc" />
  </g>
  <g
     inkscape:groupmode="layer"
     id="layer5"
     inkscape:label="Antenna"
     style="display:inline">
    <path
       style="display:inline;opacity:0.4;stroke:none;stroke-width:1.30674851"
       d="m 698.73047,203.27148 c -14.33503,-0.10454 -26.80221,10.66131 -31.68945,23.6504 -6.45533,16.30822 -2.7695,37.00749 11.08203,48.40234 7.46153,6.25932 17.91474,8.91311 27.38867,6.44336 11.59086,-2.86178 20.92122,-12.3892 24.75,-23.54883 1.04539,-2.63963 1.80403,-5.40984 2.16992,-8.23242 1.20221,-6.4684 0.96565,-13.27583 -1.08594,-19.53516 -3.18847,-14.88386 -16.99958,-27.57171 -32.61523,-27.17969 z"
       id="path5"
       inkscape:connector-curvature="0" />
    <path
       style="display:inline;opacity:0.4;stroke:none;stroke-width:1.30674851"
       d="m 44.259766,253.5957 c -4.975267,0.15551 -9.910212,1.42786 -14.271485,3.85352 -6.821227,3.63276 -12.152643,9.94424 -14.439453,17.35351 -1.81638,4.92644 -2.143659,10.34946 -1.111328,15.49805 0.561902,2.36522 1.254963,4.72998 2.417969,6.87305 5.409939,13.3419 21.377865,20.6461 35.164062,17.4707 12.518651,-2.35215 22.960455,-13.15852 24.554688,-25.83398 1.489694,-9.81368 -2.183278,-20.21584 -9.566407,-26.86719 -6.051878,-5.76603 -14.455936,-8.60684 -22.748046,-8.34766 z"
       id="path7"
       inkscape:connector-curvature="0" />
  </g>
  <g
     inkscape:groupmode="layer"
     id="layer6"
     inkscape:label="Eyes"
     style="display:inline">
    <path
       style="opacity:0.5;stroke-width:1.30674851"
       d="m 203.46289,498.83984 c -16.77215,-0.0469 -33.66935,3.64686 -48.23633,12.06641 -10.31025,5.97184 -19.40432,15.47011 -21.76953,27.49219 -2.73111,14.33503 2.92673,29.71579 13.41992,39.66015 6.67749,6.53374 15.56384,10.37679 24.67188,12.0625 l 0.0644,0.23438 c 5.52755,0.37896 11.26436,2.15632 16.72656,0.67969 19.06547,-0.54883 37.76528,-7.6971 53.00196,-19.05274 11.38178,-8.70294 21.31279,-21.45644 21.40429,-36.39258 0.43123,-7.38312 -3.97283,-13.83866 -8.66406,-19.09179 -10.14037,-10.58466 -24.8281,-15.35337 -39.05859,-17.03907 -3.82714,-0.39692 -7.69005,-0.60831 -11.56055,-0.61914 z"
       id="path124"
       inkscape:connector-curvature="0" />
    <path
       style="opacity:0.5;stroke-width:1.30674851"
       d="m 513.30273,535.32812 c -4.6233,0.0332 -9.2458,0.34894 -13.83984,0.99415 -8.88588,1.33289 -17.82403,3.61834 -25.7168,8.03515 -9.18644,6.58601 -16.15011,17.42011 -15.67968,29.03711 0.4443,11.23804 6.71583,21.24661 13.91601,29.49219 13.3027,14.55718 30.85237,26.06925 50.50586,29.4668 14.8316,2.28681 30.7345,1.90804 44.37695,-4.97852 12.62319,-6.08945 24.3445,-16.43804 27.78125,-30.51172 3.20153,-12.44024 2.18265,-27.62531 -7.76171,-36.83789 -11.94368,-11.12043 -27.37677,-18.16309 -43.29297,-21.35156 -9.93619,-2.12918 -20.11779,-3.4188 -30.28907,-3.34571 z"
       id="path126"
       inkscape:connector-curvature="0" />
    <path
       style="opacity:0.3;stroke-width:1.30674851"
       inkscape:connector-curvature="0"
       id="path147"
       d="m 169.53589,609.78694 c 9.66994,-1.73797 19.54896,-2.03852 29.34957,-1.50276 7.53994,0.69258 15.26283,1.76411 22.12326,5.17473 2.63963,1.39822 5.65822,3.55435 5.72356,6.86043 -0.35283,4.2992 -4.61283,6.53374 -7.9189,8.48079 -8.92509,3.88105 -18.62117,5.37074 -28.23884,6.36387 -8.27171,0.20908 -16.56957,0.24828 -24.76288,-0.96699 -6.66442,-1.29368 -14.11288,-2.62657 -18.97399,-7.74902 -3.61969,-4.80884 1.80332,-9.51313 5.89344,-11.44712 5.29233,-2.58736 11.04202,-4.10319 16.80478,-5.21393 z" />
    <path
       style="opacity:0.3;stroke-width:1.30674851"
       inkscape:connector-curvature="0"
       id="path149"
       d="m 459.18977,646.65032 c 2.2084,-3.68503 6.9127,-4.28614 10.79374,-4.71736 13.28963,-0.94086 26.54006,1.5681 39.37233,4.80883 13.51178,3.64583 26.99743,8.24558 38.84963,15.83779 3.93332,2.32602 6.8735,5.89344 9.38246,9.64381 -3.00552,7.44846 -12.06129,6.57294 -18.63424,6.9911 -17.18374,-0.70564 -34.1192,-4.76963 -50.23141,-10.66307 -8.74215,-3.38447 -17.54963,-7.13484 -24.88049,-13.09362 -2.46975,-2.2084 -5.55368,-5.14858 -4.65202,-8.80748 z" />
  </g>
  <g
     inkscape:groupmode="layer"
     id="layer7"
     inkscape:label="Mouth"
     style="display:inline">
    <g
       style="display:inline"
       id="#ff005cff"
       transform="matrix(1.3067485,0,0,1.3067485,8.8711656,167.07362)" />
    <g
       style="display:inline;opacity:0.5"
       id="#ce0054ff"
       transform="matrix(1.3067485,0,0,1.3067485,8.8711656,167.07362)">
      <path
         id="path161"
         style="opacity:1"
         d="m 222.55,411.43 c 10.76,-10.24 27.74,-11.85 40.85,-5.37 -3.59,7.48 -7.31,15.2 -13.36,21.04 -3.85,3.73 -9.75,6.04 -14.91,3.66 -7.84,-3.07 -10.44,-11.98 -12.58,-19.33 z m 6.81,-24.12 c 3.42,-1.77 6.5,-4.85 10.59,-4.79 5.72,1.37 6.79,8.26 11.43,11.12 4.74,2.77 10.16,4.5 15.69,4.47 -1.24,2.64 -2.45,5.29 -3.67,7.95 -13.11,-6.48 -30.09,-4.87 -40.85,5.37 -1.87,-7.49 -3.07,-15.19 -6,-22.37 4.3,0.76 8.97,0.52 12.81,-1.75 z"
         inkscape:connector-curvature="0" />
    </g>
  </g>
</svg>
